<svg xmlns="http://www.w3.org/2000/svg" viewBox="0 0 64 48" shape-rendering="crispEdges">
  <g id="shadow">
    <rect fill="#00000022" x="8" y="44" width="48" height="2" />
    <rect fill="#00000016" x="12" y="43" width="40" height="1" />
  </g>
  <g id="back-legs">
    <rect fill="#5e2f20" x="17" y="21" width="3" height="21" />
    <rect fill="#4a2419" x="19" y="21" width="1" height="21" />
    <rect fill="#5e2f20" x="44" y="21" width="3" height="21" />
    <rect fill="#4a2419" x="46" y="21" width="1" height="21" />
  </g>
  <g id="front-legs">
    <rect fill="#8b442a" x="10" y="21" width="4" height="23" />
    <rect fill="#a8572f" x="10" y="21" width="1" height="23" />
    <rect fill="#3a1f17" x="13" y="21" width="1" height="23" />
    <rect fill="#8b442a" x="50" y="21" width="4" height="23" />
    <rect fill="#a8572f" x="50" y="21" width="1" height="23" />
    <rect fill="#3a1f17" x="53" y="21" width="1" height="23" />
  </g>
  <g id="top">
    <rect fill="#3a1f17" x="6" y="13" width="52" height="11" />
    <rect fill="#ffc163" x="7" y="14" width="50" height="2" />
    <rect fill="#ffd98a" x="9" y="14" width="20" height="1" />
    <rect fill="#e8923a" x="7" y="16" width="50" height="5" />
    <rect fill="#f0a44a" x="7" y="16" width="50" height="1" />
    <rect fill="#b5672e" x="7" y="21" width="50" height="2" />
    <rect fill="#c97a2f" x="14" y="18" width="7" height="1" />
    <rect fill="#c97a2f" x="30" y="19" width="9" height="1" />
    <rect fill="#c97a2f" x="44" y="18" width="6" height="1" />
  </g>
</svg>
